<?xml version="1.0" encoding="iso-8859-1"?>
<!-- Uploaded to: SVG Repo, www.svgrepo.com, Generator: SVG Repo Mixer Tools -->
<svg height="800px" width="800px" version="1.1" id="Layer_1" xmlns="http://www.w3.org/2000/svg" xmlns:xlink="http://www.w3.org/1999/xlink" 
	 viewBox="0 0 512.202 512.202" xml:space="preserve">
<g transform="translate(-1)">
	<path style="fill:#397949;" d="M36.513,180.965c-4.873,0-8.828-3.946-8.828-8.828c0-9.852-8.015-17.858-17.858-17.858
		c-4.882,0-8.828-3.955-8.828-8.828c0-4.882,3.946-8.828,8.828-8.828c19.58,0,35.513,15.925,35.513,35.513
		C45.341,177.019,41.386,180.965,36.513,180.965"/>
	<path style="fill:#569E67;" d="M474.587,287.103c-26.377,0.777-55.861-15.086-55.861-15.086l-70.744-28.301l-11.547,15.298
		c-5.305,7.018-15.016,9.905-22.784,5.809c-9.913-5.235-12.429-17.77-5.967-26.333l7.689-10.178
		c-9.534-5.323-18.582-11.396-27.383-17.832l-9.966,13.197c-5.297,7.018-15.007,9.913-22.784,5.809
		c-9.913-5.235-12.429-17.77-5.959-26.333l11.529-15.263c-6.506-6.215-12.782-12.685-18.644-19.553
		c-21.972-25.759-48.614-51.765-64.671-48.958c-3.725,0.653-7.459,1.677-11.273,2.94c-6.824,17.09-26.28,33.589-52.198,42.019
		c-26.553,8.633-52.586,6.435-68.017-3.999c-5.12-3.46-10.902-5.694-17.073-5.65h-1.262v88.073c0,0-52.824,44.862-9.242,106.134
		h46.548h359.689c5.358,0,10.717-1.827,14.407-5.711c2.136-2.26,4.723-4.017,7.618-5.129c14.53-5.588,67.734-18.105,66.463-28.804
		C511.654,296.716,500.964,286.326,474.587,287.103"/>
	<g>
		<path style="fill:#397949;" d="M252.725,227.887L252.725,227.887c-7.777-5.879-9.331-16.949-3.452-24.726l15.96-21.133
			c5.879-7.786,16.949-9.331,24.726-3.452c7.786,5.87,9.331,16.949,3.452,24.726l-15.96,21.133
			C271.581,232.212,260.502,233.766,252.725,227.887"/>
		<path style="fill:#397949;" d="M311.134,263.224L311.134,263.224c-7.777-5.879-9.331-16.949-3.452-24.735l15.96-21.124
			c5.879-7.786,16.949-9.331,24.726-3.46c7.786,5.879,9.331,16.949,3.452,24.735l-15.96,21.133
			C329.99,267.549,318.911,269.094,311.134,263.224"/>
	</g>
	<path style="fill:#DEDEE1;" d="M513.151,309.249L513.151,309.249c1.563,10.62-51.933,23.217-66.454,28.813
		c-2.719,1.042-5.164,2.639-7.23,4.705c-0.98,0.98-2.048,1.854-3.187,2.613c-3.416,2.277-7.45,3.513-11.608,3.513H64.974H18.435
		c-11.838,15.545-9.516,26.58-4.228,33.73c5.094,6.885,13.594,10.408,22.157,10.408h349.122c39.389,0,78.265-8.828,113.788-25.838
		l4.361-2.083C514.475,359.955,513.151,309.249,513.151,309.249"/>
	<g>
		<path style="fill:#397949;" d="M54.169,322.206c-2.26,0-4.52-0.865-6.241-2.586c-3.452-3.452-3.452-9.031,0-12.482l52.966-52.966
			c3.452-3.452,9.031-3.452,12.482,0s3.452,9.031,0,12.482L60.41,319.62C58.688,321.341,56.428,322.206,54.169,322.206"/>
		<path style="fill:#397949;" d="M98.306,322.206c-2.26,0-4.52-0.865-6.241-2.586c-3.452-3.452-3.452-9.031,0-12.482l35.31-35.31
			c3.452-3.452,9.031-3.452,12.482,0c3.452,3.452,3.452,9.031,0,12.482l-35.31,35.31
			C102.826,321.341,100.566,322.206,98.306,322.206"/>
		<path style="fill:#397949;" d="M142.444,322.206c-2.26,0-4.52-0.865-6.241-2.586c-3.452-3.452-3.452-9.031,0-12.482l17.655-17.655
			c3.452-3.452,9.031-3.452,12.482,0c3.452,3.452,3.452,9.031,0,12.482l-17.655,17.655
			C146.964,321.341,144.704,322.206,142.444,322.206"/>
		<path style="fill:#397949;" d="M151.272,145.654h-2.975c-9.119,7.698-20.789,14.292-34.278,18.679
			c-11.511,3.743-22.872,5.341-33.368,5.226v11.405c0,9.746,7.91,17.655,17.655,17.655h35.31c9.746,0,17.655-7.91,17.655-17.655
			V145.654z"/>
		<path style="fill:#397949;" d="M513.151,309.249c-1.492-12.535-12.191-22.925-38.568-22.148
			c-26.377,0.777-55.852-15.086-55.852-15.086l-28.972-11.582c-21.486,16.093-35.452,41.684-35.452,70.603
			c0,6.118,0.627,12.094,1.81,17.858h68.555c5.349,0,10.708-1.827,14.398-5.711c2.145-2.26,4.723-4.008,7.627-5.12
			C461.218,332.465,514.431,319.948,513.151,309.249"/>
	</g>
</g>
</svg>